<?xml version="1.0" ?><svg height="160" id="svg8" version="1.1" viewBox="0 0 42.333332 42.333335" width="160" xmlns="http://www.w3.org/2000/svg" xmlns:cc="http://creativecommons.org/ns#" xmlns:dc="http://purl.org/dc/elements/1.1/" xmlns:inkscape="http://www.inkscape.org/namespaces/inkscape" xmlns:rdf="http://www.w3.org/1999/02/22-rdf-syntax-ns#" xmlns:sodipodi="http://sodipodi.sourceforge.net/DTD/sodipodi-0.dtd" xmlns:svg="http://www.w3.org/2000/svg" xmlns:xlink="http://www.w3.org/1999/xlink"><defs id="defs2"><linearGradient id="linearGradient925"><stop id="stop921" offset="0" style="stop-color:#daa000;stop-opacity:1"/><stop id="stop857" offset="0.41462299" style="stop-color:#ec1616;stop-opacity:1"/><stop id="stop923" offset="1" style="stop-color:#b200a6;stop-opacity:1"/></linearGradient><linearGradient gradientTransform="matrix(3.7795275,0,0,3.7795275,3.5905508e-6,-962.51959)" gradientUnits="userSpaceOnUse" id="linearGradient927" x1="13.758333" x2="30.427086" xlink:href="#linearGradient925" y1="283.63855" y2="265.97763"/></defs><g id="layer1" transform="translate(0,-254.66666)"><g id="g1489" style="fill:none;fill-rule:evenodd;stroke:none;stroke-width:1" transform="matrix(0.75231906,0,0,0.75231906,-503.97895,-267.83312)"/><path d="M 53.496094 40 C 46.000867 40 40 46.340048 40 53.888672 L 40 106.10156 C 40 113.65026 46.000882 120 53.496094 120 L 106.50977 120 C 114.00498 120 120 113.65026 120 106.10156 L 120 53.888672 C 120 46.340048 114.005 40 106.50977 40 L 53.496094 40 z M 53.496094 47.708984 L 106.50977 47.708984 C 109.69406 47.708984 112.29102 50.312936 112.29102 53.888672 L 112.29102 106.10156 C 112.29102 109.67737 109.69409 112.2832 106.50977 112.2832 L 53.496094 112.2832 C 50.311781 112.2832 47.716797 109.67737 47.716797 106.10156 L 47.716797 53.888672 C 47.716797 50.312936 50.3118 47.708984 53.496094 47.708984 z M 71.894531 60.486328 C 65.04873 60.486328 60.486328 65.048711 60.486328 71.894531 L 60.486328 88.025391 C 60.486328 91.408937 61.587766 94.320764 63.791016 96.445312 C 65.915571 98.491171 68.748427 99.513672 71.974609 99.513672 L 88.025391 99.513672 C 91.408945 99.513672 94.243193 98.412481 96.289062 96.445312 C 98.413622 94.399454 99.513672 91.489015 99.513672 88.105469 L 99.513672 71.894531 C 99.513672 68.589637 98.413061 65.756834 96.367188 63.710938 C 94.321318 61.586389 91.410337 60.486328 88.105469 60.486328 L 71.894531 60.486328 z M 71.974609 64.105469 L 88.183594 64.105469 C 90.544211 64.105469 92.511364 64.814091 93.927734 66.230469 C 95.265419 67.646847 96.052734 69.612604 96.052734 71.894531 L 96.052734 88.105469 C 96.052734 90.544776 95.185905 92.511921 93.769531 93.849609 C 92.353161 95.187298 90.386012 95.894531 88.025391 95.894531 L 71.974609 95.894531 C 69.613988 95.894531 67.646839 95.187298 66.230469 93.849609 C 64.814095 92.433231 64.105469 90.464698 64.105469 88.025391 L 64.105469 71.894531 C 64.105469 69.533914 64.814095 67.566769 66.230469 66.150391 C 67.568153 64.812702 69.613988 64.105469 71.974609 64.105469 z M 90.464844 67.332031 A 2.2819334 2.2819334 0 0 0 88.183594 69.613281 A 2.2819334 2.2819334 0 0 0 90.464844 71.894531 A 2.2819334 2.2819334 0 0 0 92.748047 69.613281 A 2.2819334 2.2819334 0 0 0 90.464844 67.332031 z M 80 69.849609 C 74.491883 69.849609 69.927734 74.335091 69.927734 79.921875 C 69.927734 85.508697 74.413197 89.994141 80 89.994141 C 85.586799 89.994141 90.072266 85.430007 90.072266 79.921875 C 90.072266 74.413781 85.508113 69.849609 80 69.849609 z M 80 73.46875 C 83.54093 73.46875 86.453125 76.380949 86.453125 79.921875 C 86.453125 83.462801 83.54093 86.373047 80 86.373047 C 76.459066 86.373047 73.546875 83.462801 73.546875 79.921875 C 73.546875 76.380949 76.459066 73.46875 80 73.46875 z " id="path872" style="color:#000000;font-style:normal;font-variant:normal;font-weight:normal;font-stretch:normal;font-size:medium;line-height:normal;font-family:sans-serif;font-variant-ligatures:normal;font-variant-position:normal;font-variant-caps:normal;font-variant-numeric:normal;font-variant-alternates:normal;font-feature-settings:normal;text-indent:0;text-align:start;text-decoration:none;text-decoration-line:none;text-decoration-style:solid;text-decoration-color:#000000;letter-spacing:normal;word-spacing:normal;text-transform:none;writing-mode:lr-tb;direction:ltr;text-orientation:mixed;dominant-baseline:auto;baseline-shift:baseline;text-anchor:start;white-space:normal;shape-padding:0;clip-rule:nonzero;display:inline;overflow:visible;visibility:visible;opacity:1;isolation:auto;mix-blend-mode:normal;color-interpolation:sRGB;color-interpolation-filters:linearRGB;solid-color:#000000;solid-opacity:1;vector-effect:none;fill:url(#linearGradient927);fill-opacity:1;fill-rule:nonzero;stroke:none;stroke-width:2.89156818;stroke-linecap:square;stroke-linejoin:miter;stroke-miterlimit:4;stroke-dasharray:none;stroke-dashoffset:0;stroke-opacity:1;paint-order:stroke fill markers;color-rendering:auto;image-rendering:auto;shape-rendering:auto;text-rendering:auto;enable-background:accumulate" transform="matrix(0.26458333,0,0,0.26458333,0,254.66666)"/></g></svg>