<?xml version="1.0" ?><svg height="160" id="svg8" version="1.1" viewBox="0 0 42.333332 42.333335" width="160" xmlns="http://www.w3.org/2000/svg" xmlns:cc="http://creativecommons.org/ns#" xmlns:dc="http://purl.org/dc/elements/1.1/" xmlns:inkscape="http://www.inkscape.org/namespaces/inkscape" xmlns:rdf="http://www.w3.org/1999/02/22-rdf-syntax-ns#" xmlns:sodipodi="http://sodipodi.sourceforge.net/DTD/sodipodi-0.dtd" xmlns:svg="http://www.w3.org/2000/svg" xmlns:xlink="http://www.w3.org/1999/xlink"><defs id="defs2"><linearGradient id="linearGradient925"><stop id="stop921" offset="0" style="stop-color:#17b2ff;stop-opacity:1"/><stop id="stop923" offset="1" style="stop-color:#6cd3ff;stop-opacity:1"/></linearGradient><linearGradient gradientTransform="matrix(3.7795275,0,0,3.7795275,1.285039e-5,-962.51929)" gradientUnits="userSpaceOnUse" id="linearGradient927" x1="28.592997" x2="13.714888" xlink:href="#linearGradient925" y1="283.25027" y2="267.90915"/></defs><g id="layer1" transform="translate(0,-254.66666)"><g id="g1489" style="fill:none;fill-rule:evenodd;stroke:none;stroke-width:1" transform="matrix(0.75231906,0,0,0.75231906,-503.97895,-267.83312)"/><path d="M 53.496094 40 C 46.000867 40 40 46.340048 40 53.888672 L 40 106.10156 C 40 113.65026 46.000882 120 53.496094 120 L 106.50977 120 C 114.00498 120 120 113.65026 120 106.10156 L 120 53.888672 C 120 46.340048 114.005 40 106.50977 40 L 53.496094 40 z M 53.496094 47.708984 L 106.50977 47.708984 C 109.69406 47.708984 112.29102 50.312936 112.29102 53.888672 L 112.29102 106.10156 C 112.29102 109.67737 109.69409 112.2832 106.50977 112.2832 L 53.496094 112.2832 C 50.311781 112.2832 47.716797 109.67737 47.716797 106.10156 L 47.716797 53.888672 C 47.716797 50.312936 50.3118 47.708984 53.496094 47.708984 z M 87.945312 62.296875 C 83.265154 62.219017 79.470703 66.174878 79.470703 71.130859 C 79.470703 71.834229 79.544886 72.519303 79.689453 73.177734 C 72.646081 72.720865 66.402375 69.05397 62.222656 63.525391 C 61.493162 64.850153 61.074219 66.397995 61.074219 68.056641 C 61.074219 71.196597 62.569759 73.983527 64.84375 75.628906 C 63.454573 75.567678 62.148429 75.146946 61.005859 74.457031 C 61.005035 74.494827 61.005859 74.532139 61.005859 74.570312 C 61.005859 78.955283 63.925801 82.635255 67.802734 83.492188 C 67.09162 83.693636 66.343181 83.797882 65.570312 83.792969 C 65.024227 83.789378 64.493942 83.729566 63.976562 83.621094 C 65.054903 87.217201 68.183973 89.840956 71.892578 89.927734 C 68.992157 92.335369 65.337887 93.76992 61.367188 93.761719 C 60.683131 93.76032 60.008693 93.715899 59.345703 93.630859 C 63.096234 96.204264 67.551981 97.701878 72.337891 97.703125 C 87.925966 97.706905 96.449219 84.14135 96.449219 72.375 C 96.449219 71.988959 96.442033 71.604766 96.425781 71.222656 C 98.0816 69.988867 99.518129 68.442219 100.6543 66.675781 C 99.134587 67.360821 97.501174 67.816946 95.787109 68.007812 C 97.536698 66.931025 98.881047 65.207195 99.513672 63.140625 C 97.876029 64.133734 96.061374 64.845093 94.130859 65.214844 C 92.585127 63.457439 90.382881 62.337467 87.945312 62.296875 z " id="path872" style="color:#000000;font-style:normal;font-variant:normal;font-weight:normal;font-stretch:normal;font-size:medium;line-height:normal;font-family:sans-serif;font-variant-ligatures:normal;font-variant-position:normal;font-variant-caps:normal;font-variant-numeric:normal;font-variant-alternates:normal;font-feature-settings:normal;text-indent:0;text-align:start;text-decoration:none;text-decoration-line:none;text-decoration-style:solid;text-decoration-color:#000000;letter-spacing:normal;word-spacing:normal;text-transform:none;writing-mode:lr-tb;direction:ltr;text-orientation:mixed;dominant-baseline:auto;baseline-shift:baseline;text-anchor:start;white-space:normal;shape-padding:0;clip-rule:nonzero;display:inline;overflow:visible;visibility:visible;opacity:1;isolation:auto;mix-blend-mode:normal;color-interpolation:sRGB;color-interpolation-filters:linearRGB;solid-color:#000000;solid-opacity:1;vector-effect:none;fill:url(#linearGradient927);fill-opacity:1;fill-rule:nonzero;stroke:none;stroke-width:2.89156818;stroke-linecap:square;stroke-linejoin:miter;stroke-miterlimit:4;stroke-dasharray:none;stroke-dashoffset:0;stroke-opacity:1;paint-order:stroke fill markers;color-rendering:auto;image-rendering:auto;shape-rendering:auto;text-rendering:auto;enable-background:accumulate" transform="matrix(0.26458333,0,0,0.26458333,0,254.66666)"/></g></svg>