<?xml version="1.0" ?><svg height="160" id="svg8" version="1.1" viewBox="0 0 42.333332 42.333335" width="160" xmlns="http://www.w3.org/2000/svg" xmlns:cc="http://creativecommons.org/ns#" xmlns:dc="http://purl.org/dc/elements/1.1/" xmlns:inkscape="http://www.inkscape.org/namespaces/inkscape" xmlns:rdf="http://www.w3.org/1999/02/22-rdf-syntax-ns#" xmlns:sodipodi="http://sodipodi.sourceforge.net/DTD/sodipodi-0.dtd" xmlns:svg="http://www.w3.org/2000/svg" xmlns:xlink="http://www.w3.org/1999/xlink"><defs id="defs2"><linearGradient id="linearGradient1567"><stop id="stop1563" offset="0" style="stop-color:#d70100;stop-opacity:1"/><stop id="stop1565" offset="1" style="stop-color:#ff7574;stop-opacity:1"/></linearGradient><linearGradient gradientUnits="userSpaceOnUse" id="linearGradient1569" x1="110.88746" x2="48.228661" xlink:href="#linearGradient1567" y1="110.22881" y2="49.240856"/></defs><g id="layer1" transform="translate(0,-254.66666)"><g id="g1489" style="fill:none;fill-rule:evenodd;stroke:none;stroke-width:1" transform="matrix(0.75231906,0,0,0.75231906,-503.97895,-267.83312)"/><path d="M 53.496094 40 C 46.000867 40 40 46.340048 40 53.888672 L 40 106.10156 C 40 113.65026 46.000882 120 53.496094 120 L 106.50977 120 C 114.00498 120 120 113.65026 120 106.10156 L 120 53.888672 C 120 46.340048 114.005 40 106.50977 40 L 53.496094 40 z M 53.496094 47.708984 L 106.50977 47.708984 C 109.69406 47.708984 112.29102 50.312936 112.29102 53.888672 L 112.29102 106.10156 C 112.29102 109.67737 109.69409 112.2832 106.50977 112.2832 L 53.496094 112.2832 C 50.311781 112.2832 47.716797 109.67737 47.716797 106.10156 L 47.716797 53.888672 C 47.716797 50.312936 50.3118 47.708984 53.496094 47.708984 z M 79.992188 65.970703 C 79.992188 65.970703 71.67597 65.971157 66.132812 66.375 C 65.357911 66.46722 63.671784 66.475162 62.164062 68.064453 C 60.976954 69.275074 60.589844 72.023438 60.589844 72.023438 C 60.589844 72.023438 60.193359 75.253055 60.193359 78.480469 L 60.193359 81.505859 C 60.193359 84.734521 60.589844 87.962891 60.589844 87.962891 C 60.589844 87.962891 60.976954 90.711557 62.164062 91.921875 C 63.671784 93.51128 65.649891 93.46107 66.53125 93.626953 C 69.700184 93.933473 80 94.029297 80 94.029297 C 80 94.029297 88.324034 94.018182 93.867188 93.613281 C 94.640853 93.519927 96.329459 93.51128 97.835938 91.921875 C 99.023049 90.711255 99.410156 87.962891 99.410156 87.962891 C 99.410156 87.962891 99.806641 84.734823 99.806641 81.505859 L 99.806641 78.480469 C 99.806641 75.253055 99.410156 72.023438 99.410156 72.023438 C 99.410156 72.023438 99.023049 69.274771 97.835938 68.064453 C 96.329459 66.475011 94.640853 66.46722 93.867188 66.375 C 88.324034 65.971157 80.007812 65.970703 80.007812 65.970703 L 79.992188 65.970703 z M 75.908203 73.964844 L 86.611328 79.589844 L 75.910156 85.173828 L 75.908203 73.964844 z " id="path872" style="color:#000000;font-style:normal;font-variant:normal;font-weight:normal;font-stretch:normal;font-size:medium;line-height:normal;font-family:sans-serif;font-variant-ligatures:normal;font-variant-position:normal;font-variant-caps:normal;font-variant-numeric:normal;font-variant-alternates:normal;font-feature-settings:normal;text-indent:0;text-align:start;text-decoration:none;text-decoration-line:none;text-decoration-style:solid;text-decoration-color:#000000;letter-spacing:normal;word-spacing:normal;text-transform:none;writing-mode:lr-tb;direction:ltr;text-orientation:mixed;dominant-baseline:auto;baseline-shift:baseline;text-anchor:start;white-space:normal;shape-padding:0;clip-rule:nonzero;display:inline;overflow:visible;visibility:visible;opacity:1;isolation:auto;mix-blend-mode:normal;color-interpolation:sRGB;color-interpolation-filters:linearRGB;solid-color:#000000;solid-opacity:1;vector-effect:none;fill:url(#linearGradient1569);fill-opacity:1;fill-rule:nonzero;stroke:none;stroke-width:2.89156818;stroke-linecap:square;stroke-linejoin:miter;stroke-miterlimit:4;stroke-dasharray:none;stroke-dashoffset:0;stroke-opacity:1;paint-order:stroke fill markers;color-rendering:auto;image-rendering:auto;shape-rendering:auto;text-rendering:auto;enable-background:accumulate" transform="matrix(0.26458333,0,0,0.26458333,0,254.66666)"/></g></svg>